:SAMPLES-PER-SECOND 30
:FULLY-SPECIFIED
:DEGREES
441
root  43.0052 31.2594 39.592 -161.064 33.3787 -163.368
RightUpLeg  -23.9865 3.95158 0.452269
RightLeg  54.2077 -7.79903 -9.40908
RightFoot  -7.70603 0.0870666 1.67041
RightToes  -21.8973 -0.092286 -0.191899
Spine  4.07255 2.08311 0.0980259
Spine1  7.98621 4.41998 -0.346237
HEad  38.3008 5.88991 8.52071
LeftShoulder1  0 -2.42657e-020 -4.95415e-022
LeftArm  -58.5494 34.465 -66.9532
LeftForeArm  93.8069 -79.8636 -85.4908
LeftHand  -0.234537 0.942826 -28.1088
RightShoulder  0 2.42657e-020 1.07489e-018
RightArm  -26.079 -12.8172 76.7749
RightForeArm  38.5039 31.1768 6.11295
RightHand  0.570722 24.4322 3.00643
LeftUpLeg  -3.58645 -13.4589 -8.62657
LeftLeg  31.8819 4.74069 2.53341
LeftFoot  -24.3944 -0.490912 -2.27082
LeftToes  27.1693 2.37847e-007 4.89147e-008
442
root  45.091 32.1319 37.4121 -160.5 31.8736 -161.922
RightUpLeg  -26.8959 7.57331 2.01076
RightLeg  41.8999 -11.5917 -9.00901
RightFoot  -7.54113 0.102144 1.92752
RightToes  -22.9275 -0.0983727 -0.199934
Spine  3.91014 0.366716 1.09412
Spine1  7.68312 0.734924 1.78046
HEad  39.02 10.902 4.69888
LeftShoulder1  0 -2.42657e-020 -4.95415e-022
LeftArm  -69.1793 43.3419 -67.1244
LeftForeArm  42.1795 -75.4214 -43.0848
LeftHand  -0.47839 1.58909 -33.7372
RightShoulder  0 2.42657e-020 1.07489e-018
RightArm  -24.5888 -19.6884 73.5336
RightForeArm  40.1497 37.234 7.69311
RightHand  0.562264 25.3235 2.87309
LeftUpLeg  3.97608 -12.0941 -6.04369
LeftLeg  25.4093 3.68809 1.46532
LeftFoot  -15.506 -0.150855 -1.108
LeftToes  21.6491 2.37847e-007 4.89147e-008
443
root  46.9701 32.6741 35.0544 -160.403 31.07 -162.288
RightUpLeg  -28.6813 7.38872 1.45193
RightLeg  27.0374 -13.4488 -5.73496
RightFoot  -7.42563 0.0980556 1.8887
RightToes  -27.4483 -0.12675 -0.233845
Spine  3.90414 -1.00968 1.38997
Spine1  7.59547 -2.19593 2.59394
HEad  37.5721 15.7016 0.994229
LeftShoulder1  0 -2.42657e-020 -4.95415e-022
LeftArm  -78.0323 50.2063 -69.6757
LeftForeArm  11.2612 -61.7797 -19.2388
LeftHand  -0.536921 1.54456 -38.5441
RightShoulder  0 2.42657e-020 1.07489e-018
RightArm  -25.1193 -26.4942 70.6523
RightForeArm  39.2015 42.9207 9.44006
RightHand  0.572652 25.8993 2.86073
LeftUpLeg  8.83966 -8.89801 -4.7022
LeftLeg  21.9361 1.37587 0.451143
LeftFoot  -5.41497 -0.00867281 -0.183406
LeftToes  19.7366 2.37847e-007 4.89147e-008
444
root  48.7714 32.7268 32.6039 -160.937 30.7966 -163.682
RightUpLeg  -30.0622 3.29143 1.08081
RightLeg  13.9494 -10.2248 -1.83809
RightFoot  -5.12954 0.0239233 0.911747
RightToes  -33.8593 -0.17138 -0.277874
Spine  3.94963 -1.66855 1.20121
Spine1  7.71835 -3.56713 2.36165
HEad  34.9274 19.6037 -2.27413
LeftShoulder1  0 -2.42657e-020 -4.95415e-022
LeftArm  -85.527 54.0189 -74.611
LeftForeArm  -3.7143 -47.5216 -11.083
LeftHand  -0.496725 1.30861 -41.7373
RightShoulder  0 2.42657e-020 1.07489e-018
RightArm  -28.1043 -34.2863 68.4956
RightForeArm  37.5071 48.7135 11.6036
RightHand  0.748827 26.5502 3.54398
LeftUpLeg  12.0379 -5.87911 -4.61537
LeftLeg  21.7829 -0.606511 -0.20084
LeftFoot  3.08109 0.00215745 -0.0802297
LeftToes  19.0251 2.37847e-007 4.89147e-008
445
root  50.6196 32.3619 30.2352 -161.581 29.6229 -164.52
RightUpLeg  -31.7171 2.36721 0.391411
RightLeg  6.29893 -6.71337 -0.303536
RightFoot  -4.34522 0.00457701 0.498275
RightToes  -34.8122 -0.178423 -0.283982
Spine  3.83947 -1.94447 1.20673
Spine1  7.55361 -4.12314 2.4107
HEad  33.428 22.6032 -4.38435
LeftShoulder1  0 -2.42657e-020 -4.95415e-022
LeftArm  -93.6203 57.6457 -85.01
LeftForeArm  -14.6768 -43.9629 -9.73921
LeftHand  -0.315692 0.828767 -41.7544
RightShoulder  0 2.42657e-020 1.07489e-018
RightArm  -30.2465 -42.4398 65.6945
RightForeArm  33.9999 52.8408 13.4913
RightHand  1.31739 25.5277 6.18228
LeftUpLeg  13.043 -4.47696 -3.81362
LeftLeg  26.5738 -1.70268 -0.722044
LeftFoot  9.60087 0.0298118 -0.354995
LeftToes  11.5941 2.37847e-007 4.89147e-008
446
root  52.403 31.6311 27.8777 -163.609 26.2973 -165.325
RightUpLeg  -32.9694 4.96579 -2.59915
RightLeg  7.41766 -4.82119 -0.312277
RightFoot  -4.39975 -0.000454496 0.365775
RightToes  -38.9228 -0.209936 -0.308957
Spine  4.40624 -2.54142 1.49907
Spine1  8.66748 -5.33832 2.99093
HEad  31.1383 24.8516 -6.54013
LeftShoulder1  0 -2.42657e-020 -4.95415e-022
LeftArm  -104.697 57.9709 -98.4189
LeftForeArm  -16.868 -47.5592 -11.0591
LeftHand  -0.554236 1.46911 -41.5272
RightShoulder  0 2.42657e-020 1.07489e-018
RightArm  -31.5073 -45.7608 61.8747
RightForeArm  30.8191 52.9707 13.5584
RightHand  2.08102 26.4796 9.2004
LeftUpLeg  12.1211 -4.60065 -2.44522
LeftLeg  36.9745 -1.63313 -1.077
LeftFoot  15.6065 0.079077 -0.577038
LeftToes  2.49828 2.37847e-007 4.89147e-008
447
root  54.1938 30.5418 25.6138 -166.136 21.7874 -164.954
RightUpLeg  -33.6658 7.24866 -4.35139
RightLeg  15.6228 -4.49641 -0.948748
RightFoot  0.842815 0.00355035 -0.105068
RightToes  -50.3865 -0.306305 -0.365974
Spine  5.40586 -2.95303 2.1919
Spine1  10.5485 -6.2628 4.4166
HEad  28.7639 25.8816 -8.20862
LeftShoulder1  0 -2.42657e-020 -4.95415e-022
LeftArm  -111.385 55.9339 -108.385
LeftForeArm  -19.6763 -55.6776 -14.8959
LeftHand  -0.548676 1.60912 -37.8724
RightShoulder  0 2.42657e-020 1.07489e-018
RightArm  -31.22 -46.4259 57.2816
RightForeArm  31.4719 52.6242 13.3847
RightHand  2.33518 26.6962 10.1912
LeftUpLeg  8.89379 -5.40615 -0.102573
LeftLeg  52.5534 1.79339 2.04442
LeftFoot  15.5416 -0.0909117 0.666181
LeftToes  -14.8261 2.37847e-007 4.89147e-008
448
root  55.7618 29.1854 23.7227 -168.74 19.7378 -164.394
RightUpLeg  -39.5272 2.75944 -1.50725
RightLeg  37.2926 2.28828 1.50212
RightFoot  5.18099 0.00988741 0.15899
RightToes  -55.8782 -0.356057 -0.38621
Spine  6.41773 -2.06607 2.60591
Spine1  12.4321 -4.57414 5.47802
HEad  27.6948 25.3653 -8.34012
LeftShoulder1  0 -2.42657e-020 -4.95415e-022
LeftArm  -113.1 53.4546 -112.324
LeftForeArm  -16.9513 -68.2321 -26.1185
LeftHand  -0.964959 3.44733 -31.5766
RightShoulder  0 2.42657e-020 1.07489e-018
RightArm  -28.4118 -45.2464 52.5927
RightForeArm  33.6546 52.6386 13.3907
RightHand  2.03259 26.7877 8.89317
LeftUpLeg  2.31943 -5.48179 0.0218105
LeftLeg  71.123 1.74673 4.17993
LeftFoot  6.50587 -0.0251282 0.442111
LeftToes  -12.2229 2.37847e-007 4.89147e-008
449
root  57.263 28.1045 21.9536 -171.764 19.4602 -162.359
RightUpLeg  -39.4556 2.38176 1.69957
RightLeg  50.2007 2.30451 2.38117
RightFoot  0.892767 0.00354729 -0.0776933
RightToes  -56.0086 -0.357261 -0.386632
Spine  8.31017 -0.909349 3.11498
Spine1  16.0358 -2.45556 6.83974
HEad  25.8333 25.1145 -7.66072
LeftShoulder1  0 -2.42657e-020 -4.95415e-022
LeftArm  -109.393 50.4288 -111.497
LeftForeArm  12.8019 -77.6112 -53.5001
LeftHand  -0.938092 4.15057 -25.7895
RightShoulder  0 2.42657e-020 1.07489e-018
RightArm  -25.8521 -37.2338 50.3561
RightForeArm  36.0489 49.5834 11.9743
RightHand  1.65417 26.2419 7.45981
LeftUpLeg  -5.51043 -3.79477 0.678585
LeftLeg  87.4165 0.580127 5.20668
LeftFoot  -3.72323 -0.0149683 -0.46053
LeftToes  -6.66123 2.37847e-007 4.89147e-008
450
root  58.4659 27.3911 20.4239 -173.953 14.4685 -161.622
RightUpLeg  -37.5509 -1.0553 3.53515
RightLeg  58.4041 0.858277 1.13343
RightFoot  -6.99653 -0.0411015 -0.29481
RightToes  -54.6373 -0.344649 -0.383424
Spine  9.62815 -0.753758 3.74484
Spine1  18.7599 -2.18152 7.70304
HEad  24.9875 23.9334 -6.75978
LeftShoulder1  0 -2.42657e-020 -4.95415e-022
LeftArm  -95.9718 46.8224 -102.215
LeftForeArm  61.3019 -79.9195 -93.7303
LeftHand  -0.609251 3.37821 -20.769
RightShoulder  0 2.42657e-020 1.07489e-018
RightArm  -26.4896 -28.7293 52.213
RightForeArm  38.8244 46.2579 10.6279
RightHand  0.79442 26.6666 3.72189
LeftUpLeg  -18.3354 -4.52945 1.13083
LeftLeg  99.7089 -0.99334 9.38847
LeftFoot  -12.6791 -0.249802 -2.24817
LeftToes  4.53069 2.37847e-007 4.89147e-008
451
root  59.3836 27.0456 19.012 -176.152 8.69866 -161.711
RightUpLeg  -34.2982 -5.53453 4.27728
RightLeg  63.0085 -0.211077 -0.462286
RightFoot  -12.2525 -0.0379848 0.023654
RightToes  -53.9869 -0.338707 -0.379781
Spine  10.7126 -0.227365 3.97719
Spine1  21.2447 -0.970351 7.45036
HEad  23.9398 21.4137 -4.89626
LeftShoulder1  0 -2.42657e-020 -4.95415e-022
LeftArm  -79.6722 36.6529 -89.3149
LeftForeArm  82.6783 -79.5793 -104.688
LeftHand  -0.177289 1.72003 -12.0902
RightShoulder  0 2.42657e-020 1.07489e-018
RightArm  -29.1507 -20.5783 56.5371
RightForeArm  38.95 40.8482 8.76847
RightHand  -0.21493 27.7315 -0.500808
LeftUpLeg  -31.648 -4.82901 0.038547
LeftLeg  103.876 -1.86389 10.29
LeftFoot  -18.6576 -0.579453 -3.52631
LeftToes  13.8215 2.37847e-007 4.89147e-008
452
root  60.1996 26.8196 17.6333 -177.542 4.56602 -163.372
RightUpLeg  -31.5262 -8.76974 3.3886
RightLeg  66.4197 -0.914256 -1.90589
RightFoot  -16.8098 0.0281839 0.568321
RightToes  -53.6159 -0.335328 -0.377479
Spine  12.09 0.553244 3.46276
Spine1  23.9855 0.929558 5.77613
HEad  22.5881 19.8909 -4.17649
LeftShoulder1  0 -2.42657e-020 -4.95415e-022
LeftArm  -66.6409 22.3563 -79.5299
LeftForeArm  63.8416 -79.411 -72.1159
LeftHand  0.0330685 -0.94664 -4.4035
RightShoulder  0 2.42657e-020 1.07489e-018
RightArm  -31.5395 -10.9981 61.6239
RightForeArm  37.2289 35.7665 7.29083
RightHand  -0.885264 27.0596 -3.3085
LeftUpLeg  -43.5787 -3.57758 -3.23921
LeftLeg  100.389 -0.99876 8.48911
LeftFoot  -21.2901 -0.601499 -3.19938
LeftToes  14.5377 2.37847e-007 4.89147e-008
453
root  60.9505 26.5917 16.1884 -176.908 0.260173 -165.16
RightUpLeg  -29.9755 -11.0785 2.63419
RightLeg  68.984 -1.66978 -3.78128
RightFoot  -21.1313 0.215084 1.53068
RightToes  -52.721 -0.327216 -0.375878
Spine  13.5045 0.862849 2.71907
Spine1  25.9962 2.20099 3.71535
HEad  22.2547 19.333 -3.82609
LeftShoulder1  0 -2.42657e-020 -4.95415e-022
LeftArm  -56.5537 7.9205 -72.0635
LeftForeArm  39.9394 -71.6619 -32.3812
LeftHand  -0.135674 -4.50754 3.08109
RightShoulder  0 2.42657e-020 1.07489e-018
RightArm  -32.7947 -1.20797 66.4778
RightForeArm  38.0235 33.9033 6.79665
RightHand  -1.22913 27.264 -4.69618
LeftUpLeg  -54.1542 -2.64537 -7.21401
LeftLeg  90.9704 0.326695 6.72131
LeftFoot  -22.2121 -0.470806 -2.39805
LeftToes  16.5608 2.37847e-007 4.89147e-008
454
root  61.6064 26.4501 14.5644 -175.586 -4.48453 -166.405
RightUpLeg  -27.8876 -13.4197 2.76187
RightLeg  70.0541 -2.71827 -6.35206
RightFoot  -24.0603 0.556512 2.98863
RightToes  -52.896 -0.328798 -0.375813
Spine  14.8587 0.984487 2.15445
Spine1  27.7227 3.55718 1.69037
HEad  22.3644 18.4198 -3.16702
LeftShoulder1  0 -2.42657e-020 -4.95415e-022
LeftArm  -48.835 -8.75519 -66.9077
LeftForeArm  39.4348 -52.3691 -13.2451
LeftHand  -0.925882 -8.12087 12.6281
RightShoulder  0 2.42657e-020 1.07489e-018
RightArm  -32.1259 8.34689 70.2776
RightForeArm  36.3708 31.0951 6.09538
RightHand  -1.16258 26.2094 -4.62211
LeftUpLeg  -60.6076 -1.06283 -11.8547
LeftLeg  75.8864 1.18816 3.67479
LeftFoot  -19.2243 -0.132152 -0.780319
LeftToes  13.1755 2.37847e-007 4.89147e-008
